<?xml version="1.0" standalone="no"?>
<!DOCTYPE svg PUBLIC "-//W3C//DTD SVG 20010904//EN"
 "http://www.w3.org/TR/2001/REC-SVG-20010904/DTD/svg10.dtd">
<svg version="1.0" xmlns="http://www.w3.org/2000/svg"
 width="720.000000pt" height="1280.000000pt" viewBox="0 0 720.000000 1280.000000"
 preserveAspectRatio="xMidYMid meet">

<g transform="translate(0.000000,1280.000000) scale(0.100000,-0.100000)"
fill="#000000" stroke="none">
<path d="M3748 8641 c-272 -74 -482 -285 -554 -559 -8 -29 -14 -66 -14 -81 0
-16 -3 -43 -6 -60 -6 -28 -10 -31 -45 -31 -37 0 -39 -2 -39 -30 0 -16 -4 -30
-10 -30 -5 0 -10 -7 -10 -15 0 -8 -7 -15 -15 -15 -8 0 -15 -7 -15 -15 0 -9 -7
-18 -15 -21 -8 -4 -15 -12 -15 -20 0 -8 -4 -14 -10 -14 -5 0 -10 -7 -10 -16 0
-9 -9 -18 -20 -21 -11 -3 -20 -12 -20 -19 0 -8 -13 -28 -30 -46 -16 -17 -30
-35 -30 -39 0 -5 -7 -9 -15 -9 -8 0 -19 -9 -25 -20 -19 -36 -163 -175 -202
-195 -21 -10 -35 -21 -33 -23 9 -9 -29 -35 -125 -85 -30 -15 -82 -43 -115 -62
-33 -19 -69 -35 -80 -35 -11 0 -29 -6 -40 -14 -24 -16 -138 -51 -220 -66 -33
-7 -79 -16 -102 -21 -67 -15 -270 -11 -348 7 -39 8 -87 19 -107 23 -58 13
-178 76 -238 126 -119 99 -130 109 -130 125 0 8 -9 22 -21 30 -19 14 -90 138
-95 167 -1 7 -9 19 -17 28 -9 8 -19 25 -23 38 -19 61 -93 83 -129 37 -11 -14
-23 -26 -27 -28 -5 -2 -8 -10 -8 -17 0 -8 -9 -17 -21 -20 -11 -4 -18 -9 -16
-12 3 -2 -5 -15 -17 -27 -11 -13 -49 -79 -83 -147 -72 -144 -106 -230 -166
-424 -30 -97 -73 -316 -107 -545 -8 -55 -31 -167 -45 -220 -2 -8 -4 -22 -4
-30 -1 -13 -2 -13 -12 0 -15 23 -2 -140 26 -311 135 -819 576 -1557 1235
-2066 164 -126 421 -283 593 -363 189 -87 190 -87 397 -160 35 -13 230 -67
260 -73 14 -2 61 -12 105 -21 85 -17 145 -28 265 -48 48 -8 187 -13 390 -13
345 0 394 4 675 61 44 9 91 19 105 21 105 20 371 107 510 166 647 274 1182
735 1545 1332 217 356 356 734 434 1180 23 131 41 369 40 545 0 238 -12 314
-22 150 -4 -63 -12 -144 -18 -180 -32 -188 -63 -327 -85 -379 -15 -33 -15 -33
-33 -14 -16 17 -35 59 -33 73 0 3 -4 10 -9 16 -21 25 -71 225 -89 354 -43 321
-127 644 -218 842 -52 112 -86 183 -94 193 -15 18 -88 136 -88 141 0 3 -11 16
-25 30 -14 14 -25 28 -25 32 0 13 -146 172 -158 172 -4 0 -14 9 -22 20 -8 11
-25 20 -37 20 -13 0 -23 5 -23 10 0 6 -11 10 -25 10 -14 0 -25 5 -25 10 0 6
-20 10 -45 10 -31 0 -47 5 -51 15 -5 13 -65 15 -458 15 l-451 0 -1 -123 c-1
-217 -72 -378 -232 -529 -322 -304 -790 -288 -1089 36 -134 146 -203 320 -203
513 0 62 -4 103 -10 103 -28 0 6 127 61 231 64 119 241 281 381 349 84 41 174
65 283 76 104 11 48 22 -110 22 -95 1 -148 -4 -197 -17z m1151 -1289 c14 -11
23 -29 23 -50 1 -30 -12 -47 -118 -153 -110 -111 -122 -119 -153 -117 -45 4
-77 45 -65 81 5 14 60 78 121 141 121 125 145 137 192 98z m418 -499 c187
-190 286 -299 294 -321 22 -65 -15 -136 -82 -157 -56 -18 -81 -1 -276 198
-289 292 -377 386 -387 413 -14 42 2 90 40 123 28 25 44 31 82 31 l47 0 282
-287z m-2867 -463 c30 -17 66 -30 80 -30 14 0 81 14 148 30 68 17 133 30 145
30 12 0 44 -16 71 -35 45 -32 56 -35 116 -35 36 0 91 4 121 9 135 23 221 19
193 -9 -22 -22 -258 -82 -346 -87 -83 -5 -90 -4 -128 21 -47 31 -124 35 -217
11 -86 -23 -146 -20 -180 9 -45 37 -68 46 -125 46 -67 0 -121 -15 -170 -47
-78 -52 -52 2 27 57 95 65 181 75 265 30z m1581 -6 l24 -26 173 7 c114 5 172
4 172 -3 0 -12 -17 -16 -184 -47 -163 -31 -174 -31 -216 0 -25 19 -46 25 -83
25 -57 0 -59 13 -7 48 45 30 90 29 121 -4z m-1030 -359 c31 -7 73 -24 93 -36
43 -25 81 -23 222 12 49 12 123 23 164 23 66 1 84 -3 143 -32 78 -39 83 -38
297 5 69 14 161 26 205 27 69 1 87 -3 132 -27 63 -33 94 -33 238 -7 110 20
257 27 239 12 -5 -5 -43 -15 -84 -22 -41 -7 -131 -30 -200 -51 -151 -47 -205
-50 -279 -13 l-53 27 -76 -22 c-43 -12 -115 -33 -162 -47 -100 -29 -255 -43
-289 -25 -12 7 -26 23 -31 37 -9 22 -15 24 -70 24 -33 0 -102 -9 -153 -19
-183 -38 -277 -34 -347 14 -52 36 -48 36 -345 -35 -193 -46 -181 -45 -208 -16
-34 37 -95 34 -243 -9 -154 -45 -200 -45 -340 0 -60 20 -143 41 -184 47 -91
13 -105 23 -59 41 98 41 224 44 352 11 103 -26 151 -23 248 19 101 43 147 46
244 16 74 -23 94 -21 210 13 169 49 246 57 336 33z m75 -552 c8 -3 29 -29 45
-59 34 -60 62 -74 143 -74 61 1 90 7 224 54 119 41 161 45 187 16 24 -26 31
-26 139 11 123 42 197 38 314 -14 99 -44 143 -47 307 -18 164 29 195 32 195
22 0 -5 -24 -17 -54 -25 -30 -9 -108 -34 -173 -56 -105 -35 -129 -40 -213 -40
-78 0 -106 5 -155 25 -78 32 -104 31 -206 -6 -138 -51 -176 -60 -257 -61 -56
-1 -85 3 -103 15 -21 14 -32 14 -98 2 -64 -13 -75 -13 -88 0 -22 23 -56 28
-151 23 -81 -5 -91 -3 -150 24 -72 35 -80 34 -312 -27 -109 -29 -146 -35 -190
-30 -30 3 -89 8 -130 11 -52 4 -92 13 -128 31 -47 23 -61 25 -130 20 -42 -3
-115 -15 -162 -26 -99 -24 -240 -28 -315 -7 -60 16 -126 48 -145 71 -13 16
-11 17 35 11 130 -15 244 -18 296 -7 30 6 102 29 160 51 196 73 228 73 369 -7
131 -74 139 -73 435 37 114 43 249 57 311 33z m1781 -328 c43 -8 99 -15 126
-15 45 0 60 -11 36 -25 -27 -17 -132 -34 -209 -35 -74 0 -262 29 -276 42 -2 3
21 14 53 26 71 25 164 27 270 7z m-1500 -215 c97 -48 132 -50 235 -14 122 43
141 47 198 41 30 -3 87 -19 127 -36 84 -36 146 -39 308 -16 116 17 173 19 160
6 -19 -17 -311 -94 -375 -98 -46 -4 -78 0 -110 12 -78 30 -111 29 -223 -4
-122 -36 -196 -45 -287 -34 -57 7 -66 11 -78 36 -12 24 -18 27 -66 27 -36 0
-90 -13 -169 -40 -135 -47 -192 -50 -322 -20 -63 15 -121 20 -220 20 -146 0
-165 8 -92 39 100 43 206 49 427 25 51 -5 61 -2 145 41 118 62 130 65 200 60
43 -3 83 -16 142 -45z m-1250 -395 c76 -26 114 -27 188 -6 38 11 72 17 75 15
9 -10 -19 -40 -65 -69 -46 -28 -54 -30 -144 -29 -72 1 -110 7 -151 23 -30 12
-83 24 -117 28 -35 3 -63 9 -63 13 0 7 62 33 105 44 30 7 124 -3 172 -19z
m2024 -122 c53 -37 56 -38 141 -38 104 1 102 -12 -8 -44 -90 -27 -130 -26
-174 0 -71 44 -85 43 -193 -7 -133 -63 -158 -64 -293 -21 -60 20 -137 39 -171
43 -35 3 -63 10 -63 14 0 4 21 18 48 31 63 31 152 31 251 0 65 -21 79 -22 125
-12 28 7 80 25 116 41 96 42 153 41 221 -7z"/>
<path d="M4215 8471 c157 -77 279 -221 331 -391 8 -25 14 -57 14 -72 l0 -28
-444 0 -445 0 -7 -22 c-3 -12 -7 -67 -7 -122 0 -108 14 -160 58 -228 53 -79
208 -169 328 -189 73 -12 86 -10 213 26 25 8 56 -19 52 -44 -2 -9 -21 -25 -43
-36 -34 -17 -60 -20 -165 -20 -119 0 -129 2 -197 32 -150 66 -265 168 -302
267 -29 78 -42 192 -31 262 6 32 10 62 10 67 0 4 -18 7 -40 7 -22 0 -40 1 -40
3 0 1 11 38 25 81 29 92 19 125 -13 44 -34 -87 -42 -128 -42 -228 0 -169 54
-310 164 -427 70 -75 165 -140 261 -177 93 -37 247 -46 350 -22 228 54 411
235 472 466 23 88 23 238 0 255 -10 7 -17 23 -17 36 0 40 -28 130 -60 195 -37
75 -148 185 -235 231 -66 35 -192 73 -240 73 -25 0 -17 -7 50 -39z"/>
<path d="M303 6255 c0 -22 2 -30 4 -17 2 12 2 30 0 40 -3 9 -5 -1 -4 -23z"/>
</g>
</svg>
