<?xml version="1.0"?>
<svg xmlns="http://www.w3.org/2000/svg" viewBox="0 0 80 70">
    <path style="line-height:normal;fill: #ffffff;text-indent:0;text-align:start;text-decoration-line:none;text-decoration-style:solid;text-decoration-color:#000;text-transform:none;block-progression:tb;isolation:auto;mix-blend-mode:normal" d="M 21.5 10 C 19.578812 10 18 11.578812 18 13.5 C 18 14.768913 18.722916 15.839179 19.744141 16.453125 C 12.642579 22.32046 8 31.073021 8 41 C 8 53.745071 15.46012 64.759992 26.255859 69.902344 L 26.460938 70 L 53.539062 70 L 53.744141 69.902344 C 64.53988 64.759996 72 53.745071 72 41 C 72 31.073021 67.357421 22.32046 60.255859 16.453125 C 61.277084 15.839179 62 14.768913 62 13.5 C 62 11.578812 60.421188 10 58.5 10 L 21.5 10 z M 21.5 12 L 58.5 12 C 59.340812 12 60 12.659188 60 13.5 C 60 14.340812 59.340812 15 58.5 15 L 55.248047 15 L 57.710938 16.806641 C 59.748431 18.300856 61.581767 20.051923 63.183594 22 L 16.816406 22 C 18.418233 20.051923 20.251569 18.300856 22.289062 16.806641 L 24.751953 15 L 21.5 15 C 20.659188 15 20 14.340812 20 13.5 C 20 12.659188 20.659188 12 21.5 12 z M 26 15 A 1 1 0 0 0 25 16 A 1 1 0 0 0 26 17 A 1 1 0 0 0 27 16 A 1 1 0 0 0 26 15 z M 30 15 A 1 1 0 0 0 29 16 A 1 1 0 0 0 30 17 A 1 1 0 0 0 31 16 A 1 1 0 0 0 30 15 z M 34 15 A 1 1 0 0 0 33 16 A 1 1 0 0 0 34 17 A 1 1 0 0 0 35 16 A 1 1 0 0 0 34 15 z M 38 15 A 1 1 0 0 0 37 16 A 1 1 0 0 0 38 17 A 1 1 0 0 0 39 16 A 1 1 0 0 0 38 15 z M 42 15 A 1 1 0 0 0 41 16 A 1 1 0 0 0 42 17 A 1 1 0 0 0 43 16 A 1 1 0 0 0 42 15 z M 46 15 A 1 1 0 0 0 45 16 A 1 1 0 0 0 46 17 A 1 1 0 0 0 47 16 A 1 1 0 0 0 46 15 z M 50 15 A 1 1 0 0 0 49 16 A 1 1 0 0 0 50 17 A 1 1 0 0 0 51 16 A 1 1 0 0 0 50 15 z M 54 15 A 1 1 0 0 0 53 16 A 1 1 0 0 0 54 17 A 1 1 0 0 0 55 16 A 1 1 0 0 0 54 15 z M 15.300781 24 L 64.699219 24 C 68.037251 28.828898 70 34.678729 70 41 C 70 52.894237 63.078331 63.144437 53.056641 68 L 26.943359 68 C 16.921669 63.144437 10 52.894237 10 41 C 10 34.678729 11.962749 28.828898 15.300781 24 z M 56 28 A 1 1 0 0 0 55 29 A 1 1 0 0 0 56 30 A 1 1 0 0 0 57 29 A 1 1 0 0 0 56 28 z M 37.072266 32.845703 L 27.3125 37.726562 L 29.765625 40.179688 C 28.3374 40.995935 26.986464 41.830032 25.873047 42.613281 C 23.882097 40.919769 21.143715 39 18 39 L 17 39 L 17 40 C 17 43.729627 19.045158 45.582447 19.855469 46.240234 C 19.5557 46.97161 19 48.508343 19 51 L 19 52 L 20 52 C 22.758269 52 24.825634 50.649469 26.314453 49.328125 C 27.768332 50.2062 29.532121 51.12834 31.402344 51.958984 L 29.380859 56 L 31 56 C 34.101186 56 36.200692 54.960699 37.611328 53.886719 C 38.070114 53.944268 38.530505 54 39 54 C 47.666667 54 50.935547 45.351562 50.935547 45.351562 L 51.078125 44.974609 L 50.919922 44.605469 C 50.919922 44.605469 48.488421 39.108235 42.388672 37.490234 C 40.463654 35.120922 37.556641 33.167969 37.556641 33.167969 L 37.072266 32.845703 z M 52 34 A 1 1 0 0 0 51 35 A 1 1 0 0 0 52 36 A 1 1 0 0 0 53 35 A 1 1 0 0 0 52 34 z M 36.894531 35.171875 C 37.517891 35.612362 39.648963 37.148675 41.019531 38.923828 L 41.238281 39.207031 L 41.587891 39.287109 C 46.649918 40.450321 48.616058 44.534513 48.865234 45.072266 C 48.393611 46.189611 45.657018 52 39 52 C 38.555059 52 38.063686 51.95119 37.546875 51.876953 L 37.103516 51.8125 L 36.761719 52.101562 C 35.944578 52.78989 34.548048 53.381223 32.767578 53.699219 L 34.115234 51.005859 L 33.111328 50.599609 C 30.772406 49.65417 28.493819 48.386099 26.755859 47.310547 L 26.087891 46.898438 L 25.527344 47.447266 C 24.493564 48.463753 22.955894 49.345513 21.175781 49.701172 C 21.402257 47.806542 21.894531 46.447266 21.894531 46.447266 L 22.289062 45.658203 L 21.554688 45.167969 C 21.554688 45.167969 19.718976 43.825974 19.210938 41.205078 C 21.368467 41.669454 23.615467 43.174442 25.167969 44.560547 L 25.765625 45.095703 L 26.417969 44.626953 C 27.88048 43.572767 29.78753 42.312052 31.824219 41.246094 L 33.029297 40.615234 L 30.6875 38.273438 L 36.894531 35.171875 z M 55 39 A 1 1 0 0 0 54 40 A 1 1 0 0 0 55 41 A 1 1 0 0 0 56 40 A 1 1 0 0 0 55 39 z M 43.5 43 A 1.5 1.5 0 0 0 42 44.5 A 1.5 1.5 0 0 0 43.5 46 A 1.5 1.5 0 0 0 45 44.5 A 1.5 1.5 0 0 0 43.5 43 z"/>
</svg>
